<?xml version="1.0" standalone="no"?>
<!DOCTYPE svg PUBLIC "-//W3C//DTD SVG 20010904//EN"
 "http://www.w3.org/TR/2001/REC-SVG-20010904/DTD/svg10.dtd">
<svg version="1.0" xmlns="http://www.w3.org/2000/svg"
 width="750" height="750" viewBox="0 0 512.000000 512.000000"
 preserveAspectRatio="xMidYMid meet">

<g transform="translate(0.000000,512.000000) scale(0.100000,-0.100000)"
fill="white" stroke="none">
<path d="M2173 5110 c-82 -17 -151 -71 -184 -145 -16 -35 -19 -68 -19 -252 0
-116 3 -219 6 -228 10 -26 59 -45 115 -45 l51 0 -4 -147 c-4 -140 -5 -151 -33
-201 -32 -59 -61 -84 -180 -157 -180 -110 -302 -268 -357 -462 -19 -65 -22
-103 -23 -233 0 -152 1 -156 28 -203 l28 -47 -32 -65 c-28 -58 -31 -72 -26
-125 3 -38 15 -77 31 -107 l27 -47 -28 -51 c-23 -41 -28 -62 -28 -120 0 -58 5
-79 29 -121 l28 -52 -27 -46 c-18 -30 -29 -66 -32 -106 -5 -53 -2 -67 26 -125
l32 -65 -26 -45 c-18 -29 -29 -66 -32 -105 -5 -54 -2 -67 27 -127 26 -52 30
-70 22 -82 -38 -53 -46 -79 -47 -146 0 -67 13 -110 47 -157 10 -15 10 -21 0
-35 -46 -64 -47 -74 -50 -403 -2 -261 0 -327 13 -388 46 -205 196 -370 400
-440 l80 -27 525 0 525 0 80 27 c204 70 354 235 400 440 13 61 15 127 13 388
-3 329 -4 339 -50 402 -10 15 -10 21 0 35 34 48 47 91 47 158 -1 67 -9 93 -47
146 -8 12 -4 30 22 82 29 60 32 73 27 127 -3 39 -14 76 -32 105 l-26 45 32 65
c28 58 31 72 26 125 -3 40 -14 76 -32 106 l-27 46 28 52 c24 42 29 63 29 121
0 58 -5 79 -28 120 l-28 51 27 47 c16 30 28 69 31 107 5 53 2 67 -26 125 l-32
65 28 47 c27 47 28 51 28 203 -1 130 -4 168 -23 233 -55 194 -177 352 -357
462 -119 73 -148 98 -180 157 -28 50 -29 61 -33 201 l-4 147 51 0 c56 0 105
19 115 45 3 9 6 112 6 228 0 184 -3 217 -19 252 -24 53 -75 103 -131 129 -43
20 -63 21 -415 23 -203 1 -389 -2 -412 -7z m791 -191 c26 -31 27 -33 24 -173
l-3 -141 -425 0 -425 0 -3 141 c-3 140 -2 142 24 173 l26 31 378 0 378 0 26
-31z m-142 -646 l3 -168 37 -76 c45 -91 100 -146 218 -214 159 -93 275 -236
315 -391 22 -85 31 -242 16 -287 -24 -71 31 -67 -851 -67 -882 0 -827 -4 -851
67 -15 45 -6 202 16 287 40 155 156 298 315 391 118 68 173 123 218 214 l37
76 3 168 4 167 258 0 258 0 4 -167z m565 -1395 c35 -38 34 -88 -2 -123 l-24
-25 -801 0 -801 0 -24 25 c-36 35 -37 85 -2 123 l20 22 807 0 807 0 20 -22z
m-2 -341 c21 -17 27 -32 27 -62 0 -30 -6 -45 -27 -62 l-26 -23 -799 0 -799 0
-26 23 c-21 17 -27 32 -27 62 0 30 6 45 27 62 l26 23 799 0 799 0 26 -23z m0
-342 c37 -36 37 -86 -1 -125 l-24 -25 -800 0 -800 0 -24 25 c-38 39 -38 89 -1
125 l24 25 801 0 801 0 24 -25z m-10 -331 c49 -32 52 -97 5 -139 -22 -20 -36
-20 -820 -20 -784 0 -798 0 -820 20 -46 41 -45 100 3 137 20 16 79 18 815 18
703 0 795 -2 817 -16z m-6 -339 c62 -32 59 -124 -5 -151 -28 -12 -168 -14
-802 -14 -548 0 -778 3 -802 11 -65 23 -73 121 -11 154 40 22 1578 22 1620 0z
m-4 -339 c54 -23 58 -50 53 -382 -4 -271 -6 -293 -27 -346 -47 -121 -137 -215
-248 -259 l-58 -24 -525 0 -525 0 -58 24 c-111 44 -201 138 -248 259 -21 53
-23 75 -27 346 -5 328 -1 359 51 381 48 21 1562 22 1612 1z"/>
<path d="M2772 3734 c-32 -22 -43 -57 -31 -94 12 -34 35 -50 73 -50 38 0 55
10 72 42 39 75 -46 150 -114 102z"/>
<path d="M2934 3627 c-48 -41 -39 -77 38 -150 47 -46 69 -75 82 -112 27 -79
40 -99 68 -113 38 -18 95 6 104 43 18 70 -28 187 -106 269 -81 86 -137 105
-186 63z"/>
<path d="M3122 1095 c-31 -14 -42 -32 -42 -70 0 -37 10 -55 41 -71 36 -18 73
-10 99 23 25 32 25 63 0 95 -24 31 -59 39 -98 23z"/>
<path d="M3106 829 c-25 -20 -26 -25 -26 -117 0 -153 -18 -190 -99 -206 -48
-9 -71 -33 -71 -72 0 -47 9 -65 42 -79 35 -14 116 -3 157 23 99 61 131 132
131 292 0 119 -9 152 -47 169 -35 16 -57 14 -87 -10z"/>
</g>
</svg>
